inDegrees=yes
name=ik_lifting_orientations
DataType=double
version=3
OpenSimVersion=4.5-2024-01-10-34fd6af
endheader
time	pelvis_tilt	pelvis_list	pelvis_rotation	pelvis_tx	pelvis_ty	pelvis_tz	hip_flexion_r	hip_adduction_r	hip_rotation_r	knee_angle_r	knee_angle_r_beta	ankle_angle_r	subtalar_angle_r	mtp_angle_r	hip_flexion_l	hip_adduction_l	hip_rotation_l	knee_angle_l	knee_angle_l_beta	ankle_angle_l	subtalar_angle_l	mtp_angle_l	lumbar_extension	lumbar_bending	lumbar_rotation	arm_flex_r	arm_add_r	arm_rot_r	elbow_flex_r	pro_sup_r	wrist_flex_r	wrist_dev_r	arm_flex_l	arm_add_l	arm_rot_l	elbow_flex_l	pro_sup_l	wrist_flex_l	wrist_dev_l
0.02	0.005600146725348396	0.009442828025369391	-90.00844653432448	0	0.9399999998679526	0	44.92894266972778	-14.10124223374269	0	60.42170554878415	1.054557701496811	-7.089093528109885	0	0	44.92894266972778	-14.10124223374269	0	60.42170554878415	1.054557701496811	-7.089093528109885	0	0	0.0143629661205389	-0.008685741013740284	-0.007421062815515513	-0.2467391477977683	-0.04566286471004746	0.004298249340348378	0.5029720205717213	3.041987109049921	0	0	0	-8.304868111217637	0	87.0268616126786	3.041987109049921	0	0
0.03	0.0005583419032152914	0.003583267021483645	-90.01150549506322	0	0.9399999998679526	0	44.93028932418953	-13.86731005689718	0	60.41536676541002	1.054447068856361	-6.942963642748558	0	0	44.93028932418953	-13.86731005689718	0	60.41536676541002	1.054447068856361	-6.942963642748558	0	0	0.007446396130509715	-0.000681934183126548	-0.0003180226624534338	-0.2456825585010494	-0.05686040971439657	-0.004102130276600863	0.504024425159558	3.001035081732969	0	0	0	-8.372150804728086	0	87.06688278603906	3.001035081732969	0	0
0.04	-0.01578309605189913	-0.005631074872883925	-89.78212118096553	0	0.9399999998679526	0	44.93029911775357	-13.86545126077935	0	60.41531988278342	1.054446250600165	-6.941759711286758	0	0	44.93029911775357	-13.86545126077935	0	60.41531988278342	1.054446250600165	-6.941759711286758	0	0	0.05752599042551752	0.02916568503921878	-0.1534195962474022	-0.3015695839300254	-0.04011068522995467	-0.09103544584778651	0.5039570745214349	3.000738739763711	0	0	0	-8.372637442637448	0	87.06717239130057	3.000738739763711	0	0
0.05	-0.02931279925749686	0.05575719192394236	-89.70352520861894	0	0.9399999998679526	0	44.93030861115421	-13.86361074639458	0	60.41527518512694	1.054445470478892	-6.940563044989698	0	0	44.93030861115421	-13.86361074639458	0	60.41527518512694	1.054445470478892	-6.940563044989698	0	0	0.1444211947730825	0.05379704659288279	-0.1778464055477059	-0.3419268264903735	-0.0009516059869962701	-0.1292579177641532	0.4706866855391664	3.000453310929318	0	0	0	-8.373103662847502	0	87.06745133104279	3.000453310929318	0	0
0.06	-0.05637916099090816	0.08824883196527794	-89.67089697153479	0	0.9399999998679526	0	44.9318834591201	-13.59248583935558	0	60.40785577648035	1.054315977369458	-6.771943103363029	0	0	44.9318834591201	-13.59248583935558	0	60.40785577648035	1.054315977369458	-6.771943103363029	0	0	0.2281251175084922	0.09189019073004916	-0.1553420599808349	-0.6354578480858926	-0.06680620592452538	-0.1795643682556043	0.9670443887539619	2.95251213087057	0	0	0	-8.451918493645191	0	87.11430280026913	2.95251213087057	0	0
0.07000000000000001	-0.09683976898727992	0.1518557791897359	-89.23469140006513	0	0.9399999998679526	0	44.93189563387634	-13.59028492363942	0	60.40779736355422	1.054314957871571	-6.770541878199333	0	0	44.93189563387634	-13.59028492363942	0	60.40779736355422	1.054314957871571	-6.770541878199333	0	0	0.3120896234663185	0.1444357170257985	-0.4441234715524768	-0.4340486361551468	-0.01422670542821764	-0.363014899210493	0.4941023217219256	2.952141594448482	0	0	0	-8.452528973451868	0	87.1146649140217	2.952141594448482	0	0
0.08	-0.139619965043964	0.1629781250421245	-88.85405617385955	0	0.9399999998679526	0	44.93191205471406	-13.58729898209875	0	60.40771894226792	1.054313589161922	-6.768638871407175	0	0	44.93191205471406	-13.58729898209875	0	60.40771894226792	1.054313589161922	-6.768638871407175	0	0	0.2929567346708067	0.1804691470258349	-0.8453799755968355	-0.3777243808489801	0.001434895613653669	-0.3387284706571284	0.4647997249369241	2.951642710204448	0	0	0	-8.453349707585552	0	87.11515245790298	2.951642710204448	0	0
0.09	-0.1435839895228727	0.1891972702990484	-88.88527700558744	0	0.9399999998679526	0	44.93332265399812	-13.36402448142204	0	60.40101882109436	1.05419664998716	-6.633599224072571	0	0	44.93332265399812	-13.36402448142204	0	60.40101882109436	1.05419664998716	-6.633599224072571	0	0	0.3091930674836878	0.173802070311477	-0.8144552217119798	-0.3700882471965202	0.008858027699008626	-0.3420771153251042	0.4711307067376774	2.90820366440659	0	0	0	-8.52526771677228	0	87.15760427979934	2.90820366440659	0	0
0.1	-0.1474159399879698	0.2157164665408697	-88.92236383338751	0	0.9399999998679526	0	44.93510141790797	-13.09076679075067	0	60.39254658003281	1.054048781485614	-6.47016596210486	0	0	44.93510141790797	-13.09076679075067	0	60.39254658003281	1.054048781485614	-6.47016596210486	0	0	0.3408656045182842	0.1768156240487301	-0.8397757475943327	-0.3771080392952881	0.02865738506778967	-0.2728835485160937	0.4767273935585685	2.853213975257615	0	0	0	-8.616524005172019	0	87.21134429782148	2.853213975257615	0	0
0.11	-0.1182270740697256	0.2724595338360501	-89.21355059262356	0	0.9399999998679526	0	44.93511158075624	-13.08911383565106	0	60.39249725770409	1.054047920648583	-6.4691501186436	0	0	44.93511158075624	-13.08911383565106	0	60.39249725770409	1.054047920648583	-6.4691501186436	0	0	0.4048246377045108	0.1559304909159287	-0.5759407857195287	-0.3843965346740797	0.05507278450507092	-0.2333802057916569	0.4847526044611236	2.852900111228045	0	0	0	-8.61704582475519	0	87.21165102876051	2.852900111228045	0	0
0.12	-0.1156410051153683	0.2736067961335317	-89.29079841423125	0	0.9399999998679526	0	44.93673442145752	-12.85217861108132	0	60.3847292767317	1.053912343804382	-6.329973353113715	0	0	44.93673442145752	-12.85217861108132	0	60.3847292767317	1.053912343804382	-6.329973353113715	0	0	0.3970877434139948	0.1479837273642417	-0.5330802302569834	-0.3717088443746482	0.07439410908260891	-0.205525167083299	0.4764591097200601	2.802383365028372	0	0	0	-8.701232664525719	0	87.26101984796358	2.802383365028372	0	0
0.13	-0.1187892856498173	0.2757685435930793	-89.35489854709053	0	0.9399999998679526	0	44.93830488941521	-12.63453579242161	0	60.37717384872877	1.053780476709334	-6.204465387691084	0	0	44.93830488941521	-12.63453579242161	0	60.37717384872877	1.053780476709334	-6.204465387691084	0	0	0.3998806706030454	0.1493303273473624	-0.4702242172861781	-0.3702331062656462	0.09891087438618008	-0.2330391597218135	0.4590348350321797	2.753150288508016	0	0	0	-8.783634366784499	0	87.30913425967445	2.753150288508016	0	0
0.14	-0.1189308801266294	0.272928376898786	-89.28481294478463	0	0.9399999998679526	0	44.93940697785986	-12.49117014760058	0	60.37183792654704	1.053687347298632	-6.123551993103024	0	0	44.93940697785986	-12.49117014760058	0	60.37183792654704	1.053687347298632	-6.123551993103024	0	0	0.3986536141027111	0.1376555994363059	-0.5929621120887043	-0.3841404821123052	0.1375829057324825	-0.1930280440281509	0.4821935607158119	2.718293102626023	0	0	0	-8.842292842303067	0	87.34319950690158	2.718293102626023	0	0
